<?xml version="1.0" standalone="no"?>
<!DOCTYPE svg PUBLIC "-//W3C//DTD SVG 20010904//EN"
 "http://www.w3.org/TR/2001/REC-SVG-20010904/DTD/svg10.dtd">
<svg version="1.0" xmlns="http://www.w3.org/2000/svg"
 width="600.000000pt" height="600.000000pt" viewBox="0 0 600.000000 600.000000"
 preserveAspectRatio="xMidYMid meet">
<metadata>
Created by potrace 1.11, written by Peter Selinger 2001-2013
</metadata>
<g transform="translate(0.000000,600.000000) scale(0.100000,-0.100000)"
fill="#000000" stroke="none">
<path d="M2768 5965 c-2 -1 -34 -6 -73 -10 -38 -4 -81 -8 -95 -10 -63 -8 -116
-16 -130 -20 -8 -3 -31 -7 -50 -9 -27 -4 -234 -54 -285 -70 -71 -21 -149 -48
-181 -62 -21 -9 -48 -19 -59 -21 -10 -2 -29 -10 -40 -17 -11 -7 -35 -17 -53
-20 -17 -4 -32 -12 -32 -17 0 -5 -5 -9 -11 -9 -16 0 -140 -60 -161 -78 -10 -8
-18 -12 -18 -9 0 9 -102 -53 -112 -67 -4 -6 -8 -7 -8 -3 0 7 -226 -142 -253
-167 -7 -6 -30 -24 -52 -41 -22 -16 -45 -34 -51 -40 -6 -5 -37 -32 -69 -60
-78 -67 -218 -206 -280 -280 -27 -32 -57 -66 -65 -74 -8 -9 -26 -32 -40 -51
-13 -19 -29 -40 -35 -46 -5 -6 -17 -22 -25 -34 -8 -12 -21 -28 -28 -36 -6 -7
-12 -17 -12 -22 0 -5 -9 -17 -20 -27 -11 -10 -20 -24 -20 -32 0 -7 -4 -13 -9
-13 -5 0 -12 -11 -15 -25 -4 -14 -11 -25 -16 -25 -6 0 -10 -7 -10 -15 0 -8 -4
-15 -8 -15 -4 0 -15 -15 -23 -32 -26 -56 -54 -103 -61 -106 -5 -2 -8 -8 -8
-12 0 -5 -19 -49 -43 -97 -98 -202 -207 -519 -231 -674 -3 -20 -7 -42 -10 -50
-3 -8 -8 -34 -11 -59 -4 -25 -9 -58 -11 -75 -3 -16 -7 -41 -9 -55 -26 -172
-26 -557 0 -740 3 -19 7 -53 10 -75 5 -40 10 -71 21 -123 3 -15 7 -40 10 -57
17 -103 117 -420 164 -522 11 -24 20 -45 20 -48 0 -11 83 -176 91 -181 5 -3 9
-14 9 -25 0 -10 4 -19 8 -19 5 0 14 -16 22 -35 8 -19 16 -35 19 -35 4 0 13
-15 21 -32 7 -18 22 -42 32 -52 10 -11 18 -26 18 -33 0 -7 5 -13 12 -13 6 0 9
-3 5 -6 -3 -4 -1 -12 6 -20 27 -30 37 -43 37 -49 0 -10 143 -192 220 -280 77
-88 258 -260 354 -337 117 -93 279 -208 294 -208 6 0 12 -4 14 -8 4 -10 99
-66 117 -68 8 -2 17 -7 20 -12 7 -11 215 -112 230 -112 5 0 11 -3 13 -7 2 -5
26 -16 53 -27 68 -25 276 -97 295 -102 8 -2 40 -10 70 -18 279 -78 666 -114
970 -91 264 19 511 70 755 155 66 23 126 42 133 43 6 0 12 4 12 9 0 4 6 8 13
8 7 0 30 9 52 20 22 11 45 20 52 20 7 0 13 5 13 10 0 6 4 10 9 10 5 0 22 5 38
12 15 6 31 11 36 10 4 -1 7 3 7 8 0 6 7 10 15 10 8 0 15 4 15 10 0 5 3 9 8 8
8 -2 84 32 92 42 3 4 32 22 65 41 81 46 84 48 153 97 100 70 194 142 185 143
-4 0 0 3 9 7 39 16 297 263 369 354 20 26 39 44 43 41 3 -4 6 1 6 10 0 9 9 22
20 29 11 7 20 16 20 21 0 4 27 43 60 86 89 118 199 300 279 462 39 80 71 149
71 152 0 3 5 18 12 34 6 15 12 33 14 38 13 43 41 111 47 116 5 3 8 8 7 10 -1
2 3 24 10 49 7 25 13 50 15 55 1 6 5 17 8 25 3 8 9 29 13 45 4 17 8 32 9 35 2
6 26 119 30 140 2 8 4 15 6 15 1 0 3 14 4 30 1 17 6 44 9 60 4 17 9 46 11 65
2 19 6 49 9 65 10 53 20 246 19 375 0 108 -9 285 -13 285 -1 0 -3 20 -5 45 -4
47 -11 97 -19 140 -3 14 -8 41 -10 60 -6 38 -13 74 -16 78 -4 4 -6 14 -14 70
-4 28 -11 52 -16 52 -4 0 -8 10 -8 23 -1 27 -6 49 -13 62 -3 6 -11 30 -18 55
-8 25 -16 52 -19 60 -3 8 -6 18 -7 23 -2 4 -4 9 -5 12 -1 3 -3 8 -5 13 -2 7
-4 12 -21 57 -4 11 -8 22 -9 25 -8 23 -52 125 -71 164 -8 16 -14 35 -14 42 0
7 -3 14 -7 16 -5 2 -30 46 -57 98 -170 333 -488 711 -791 942 -38 29 -72 55
-75 59 -3 3 -45 32 -95 64 -49 33 -92 62 -95 65 -3 3 -16 11 -30 18 -14 6 -41
21 -60 33 -67 39 -95 53 -102 51 -5 -1 -8 3 -8 8 0 6 -9 10 -20 10 -11 0 -20
4 -20 9 0 8 -37 24 -52 22 -5 -1 -8 4 -8 10 0 5 -4 7 -10 4 -5 -3 -10 -1 -10
6 0 7 -3 9 -7 6 -3 -4 -16 -1 -27 6 -12 7 -59 28 -106 46 -47 18 -94 37 -105
41 -22 10 -181 60 -205 65 -8 2 -33 8 -55 13 -22 6 -52 13 -67 16 -15 2 -31 7
-36 10 -4 2 -26 7 -47 10 -22 2 -62 9 -90 14 -43 9 -89 16 -180 27 -11 1 -20
4 -20 5 0 4 -513 9 -517 5z"/>
</g>
</svg>
